<?xml version="1.0" standalone="no"?>
<!DOCTYPE svg PUBLIC "-//W3C//DTD SVG 20010904//EN"
 "http://www.w3.org/TR/2001/REC-SVG-20010904/DTD/svg10.dtd">
<svg version="1.0" xmlns="http://www.w3.org/2000/svg"
 width="350.000000pt" height="350.000000pt" viewBox="0 0 350.000000 350.000000"
 preserveAspectRatio="xMidYMid meet">
<metadata>
Created by potrace 1.11, written by Peter Selinger 2001-2013
</metadata>
<g transform="translate(0.000000,350.000000) scale(0.100000,-0.100000)"
fill="#000000" stroke="none">
<path d="M950 2448 c-30 -4 -68 -9 -85 -11 -134 -19 -287 -123 -343 -234 -25
-47 -52 -149 -52 -192 0 -25 4 -31 23 -32 174 -4 347 -2 348 4 1 4 2 10 3 15
1 4 5 21 10 38 9 40 53 82 102 99 44 15 133 12 166 -6 81 -43 89 -156 14 -197
-21 -11 -65 -18 -136 -22 l-105 -5 0 -126 -1 -127 91 -4 c100 -4 142 -23 169
-77 18 -35 14 -110 -8 -144 -21 -31 -91 -67 -130 -67 -124 0 -203 79 -208 209
l-1 41 -198 0 -198 0 5 -52 c17 -190 80 -319 195 -404 46 -34 161 -83 209 -89
14 -2 43 -8 65 -12 43 -10 214 -9 255 1 14 3 41 9 60 12 139 24 281 113 339
215 l28 49 -1 -127 -1 -127 190 1 190 0 5 409 c3 227 8 396 13 379 4 -16 12
-43 17 -60 5 -16 11 -41 14 -55 5 -25 29 -124 67 -272 11 -46 24 -102 29 -124
8 -38 38 -157 60 -244 l9 -35 166 1 c92 1 168 4 169 5 4 4 94 367 102 409 3
14 12 52 21 85 8 33 16 67 18 75 15 66 62 250 66 254 2 2 4 -182 3 -409 0
-367 2 -414 15 -417 13 -3 344 -2 362 1 3 1 5 302 5 671 l1 670 -283 0 -283 0
-11 -42 c-6 -24 -15 -55 -20 -70 -5 -16 -7 -28 -5 -28 3 0 0 -12 -6 -27 -6
-16 -12 -39 -15 -53 -2 -14 -34 -146 -71 -295 l-67 -270 -13 55 c-8 30 -16 64
-18 75 -3 11 -40 162 -83 335 l-78 315 -285 3 -285 2 1 -135 c1 -74 0 -135 -1
-135 -2 0 -14 25 -28 55 -61 133 -208 221 -406 241 -101 10 -121 10 -180 2z
m616 -648 c0 -83 -2 -147 -6 -143 -3 5 -19 25 -34 46 -15 21 -45 49 -67 64
l-38 25 37 25 c42 29 55 44 82 96 11 20 22 37 23 37 2 0 3 -68 3 -150z"/>
</g>
</svg>
